<svg width="40" height="40" viewBox="0 0 40 40" fill="none" xmlns="http://www.w3.org/2000/svg">
<rect width="40" height="40" rx="10" fill="#41E4A4"/>
<path d="M27.6262 12H12.3738C11.0649 12 10 13.0227 10 14.2797V24.9108C10 26.1678 11.0649 27.1905 12.3738 27.1905H27.6262C28.9351 27.1905 30 26.1678 30 24.9108V14.2797C30 13.0227 28.9351 12 27.6262 12ZM27.6262 25.1779H12.3738C12.1814 25.1779 12.0127 25.0531 12.0127 24.9108V15.6855L18.9109 21.5093C19.0524 21.6288 19.2322 21.6945 19.4174 21.6945L20.5824 21.6946C20.7675 21.6946 20.9474 21.6288 21.0889 21.5093L27.9875 15.6853V24.9109C27.9874 25.0531 27.8186 25.1779 27.6262 25.1779ZM20 19.6962L13.2906 14.0126H26.7094L20 19.6962Z" fill="#333333"/>
</svg>
