<svg width="40" height="40" viewBox="0 0 40 40" fill="none" xmlns="http://www.w3.org/2000/svg">
<rect width="40" height="40" rx="10" fill="#41E4A4"/>
<path d="M29.5121 22.4306V29.6455H25.3291V22.9142C25.3291 21.224 24.7252 20.0698 23.2106 20.0698C22.0548 20.0698 21.3682 20.8468 21.065 21.5993C20.9549 21.8682 20.9265 22.2416 20.9265 22.6187V29.6452H16.7432C16.7432 29.6452 16.7994 18.2445 16.7432 17.0644H20.9268V18.8472C20.9184 18.8612 20.9065 18.875 20.8991 18.8884H20.9268V18.8472C21.4827 17.9918 22.4741 16.769 24.6968 16.769C27.4488 16.769 29.5121 18.5671 29.5121 22.4306ZM12.3671 11C10.9362 11 10 11.9393 10 13.1734C10 14.3813 10.909 15.3477 12.3122 15.3477H12.3393C13.7984 15.3477 14.7055 14.3813 14.7055 13.1734C14.6778 11.9393 13.7984 11 12.3671 11ZM10.2486 29.6455H14.4304V17.0644H10.2486V29.6455Z" fill="#333333"/>
</svg>
