<svg width="40" height="40" viewBox="0 0 40 40" fill="none" xmlns="http://www.w3.org/2000/svg">
<rect width="40" height="40" rx="10" fill="#41E4A4"/>
<path d="M28.4582 25.4261L24.3018 23.6448C24.1243 23.5691 23.9269 23.5532 23.7395 23.5994C23.5521 23.6455 23.3848 23.7513 23.2628 23.9009L21.4221 26.1497C18.5334 24.7877 16.2086 22.4629 14.8466 19.5742L17.0954 17.7335C17.2452 17.6117 17.3513 17.4444 17.3975 17.2569C17.4437 17.0694 17.4275 16.8719 17.3515 16.6945L15.5702 12.5381C15.4868 12.3468 15.3392 12.1906 15.1529 12.0964C14.9666 12.0022 14.7532 11.976 14.5497 12.0223L10.6902 12.9129C10.494 12.9583 10.3189 13.0688 10.1935 13.2264C10.0682 13.384 9.99995 13.5795 10 13.7809C10 23.2997 17.7152 31 27.219 31C27.4205 31.0001 27.6161 30.9319 27.7738 30.8066C27.9315 30.6812 28.0421 30.5061 28.0874 30.3098L28.9781 26.4503C29.024 26.2458 28.9973 26.0316 28.9024 25.8447C28.8075 25.6577 28.6504 25.5097 28.4582 25.4261Z" fill="#333333"/>
</svg>
